<svg xmlns="http://www.w3.org/2000/svg" xmlns:xlink="http://www.w3.org/1999/xlink" width="1080" zoomAndPan="magnify" viewBox="0 0 810 809.999993" height="1080" preserveAspectRatio="xMidYMid meet" version="1.2"><defs><clipPath id="32a6a15065"><path d="M 271 417.46875 L 607 417.46875 L 607 739.664062 L 271 739.664062 Z M 271 417.46875 "/></clipPath><clipPath id="b72a2f7b74"><path d="M 283 585 L 595 585 L 595 739.664062 L 283 739.664062 Z M 283 585 "/></clipPath><clipPath id="4c3bbf2433"><path d="M 616.101562 468 L 779.691406 468 L 779.691406 658.804688 L 616.101562 658.804688 Z M 616.101562 468 "/></clipPath><clipPath id="4d18d7e532"><path d="M 616.101562 472 L 779.691406 472 L 779.691406 658.804688 L 616.101562 658.804688 Z M 616.101562 472 "/></clipPath><clipPath id="b4f0146684"><path d="M 209 70.6875 L 229 70.6875 L 229 91 L 209 91 Z M 209 70.6875 "/></clipPath><clipPath id="16d4cbd8ac"><path d="M 651 70.6875 L 672 70.6875 L 672 91 L 651 91 Z M 651 70.6875 "/></clipPath></defs><g id="61414333e2"><path style=" stroke:none;fill-rule:nonzero;fill:#094f94;fill-opacity:1;" d="M 510.003906 553.410156 L 510.003906 123.222656 C 510.003906 94.945312 487.101562 72.023438 458.847656 72.023438 L 421.542969 72.023438 C 393.289062 72.023438 370.386719 94.945312 370.386719 123.222656 L 370.386719 553.410156 C 370.386719 581.679688 393.289062 604.605469 421.542969 604.605469 L 458.847656 604.605469 C 487.101562 604.605469 510.003906 581.679688 510.003906 553.410156 "/><path style=" stroke:none;fill-rule:nonzero;fill:#094f94;fill-opacity:1;" d="M 640.40625 553.050781 L 231.347656 553.050781 L 231.347656 489.101562 L 640.40625 489.101562 L 640.40625 553.050781 "/><g clip-rule="nonzero" clip-path="url(#32a6a15065)"><path style=" stroke:none;fill-rule:nonzero;fill:#e0ecf8;fill-opacity:1;" d="M 605.570312 417.757812 L 272.917969 417.757812 C 272.917969 417.757812 259.746094 599.679688 321.652344 673.503906 C 378.960938 741.847656 431.71875 740.144531 439.246094 739.511719 C 446.765625 740.144531 499.527344 741.847656 556.835938 673.503906 C 618.746094 599.679688 605.570312 417.757812 605.570312 417.757812 "/></g><g clip-rule="nonzero" clip-path="url(#b72a2f7b74)"><path style=" stroke:none;fill-rule:nonzero;fill:#c7dae9;fill-opacity:1;" d="M 560.375 655.035156 C 501.339844 723.375 446.996094 721.671875 439.246094 721.042969 C 431.492188 721.671875 377.144531 723.375 318.113281 655.035156 C 302.382812 636.820312 291.363281 612.027344 283.679688 585.011719 C 291.113281 619.042969 302.949219 651.203125 321.652344 673.503906 C 378.960938 741.847656 431.71875 740.144531 439.246094 739.511719 C 446.765625 740.144531 499.527344 741.847656 556.835938 673.503906 C 575.535156 651.203125 587.378906 619.042969 594.804688 585.011719 C 587.121094 612.027344 576.109375 636.820312 560.375 655.035156 "/></g><path style=" stroke:none;fill-rule:nonzero;fill:#c7dae9;fill-opacity:1;" d="M 272.238281 431.257812 C 296.25 461.261719 331.558594 480.246094 370.960938 480.246094 L 509.433594 480.246094 C 547.832031 480.246094 582.371094 462.238281 606.332031 433.546875 C 605.992188 423.589844 605.570312 417.757812 605.570312 417.757812 L 272.917969 417.757812 C 272.917969 417.757812 272.5625 422.707031 272.238281 431.257812 "/><path style=" stroke:none;fill-rule:nonzero;fill:#c7dae9;fill-opacity:1;" d="M 313.871094 663.082031 C 327.351562 643.535156 336.117188 614.832031 336.785156 582.667969 L 542.195312 582.667969 C 542.859375 614.632812 551.523438 643.183594 564.859375 662.722656 C 566.390625 660.417969 567.859375 658.039062 569.28125 655.601562 C 557.484375 636.730469 550.039062 609.253906 550.039062 578.691406 C 550.039062 522.355469 575.332031 476.460938 606.554688 475.796875 C 606.613281 473.085938 606.65625 470.449219 606.6875 467.875 C 571.816406 468.378906 543.414062 515.773438 542.195312 574.753906 L 336.785156 574.753906 C 335.566406 515.488281 306.894531 467.90625 271.796875 467.855469 C 271.828125 470.429688 271.875 473.066406 271.933594 475.769531 C 303.382812 475.957031 328.945312 522.050781 328.945312 578.691406 C 328.945312 609.476562 321.386719 637.125 309.445312 656 C 310.867188 658.429688 312.339844 660.792969 313.871094 663.082031 "/><path style=" stroke:none;fill-rule:nonzero;fill:#c7dae9;fill-opacity:1;" d="M 408.191406 578.707031 C 408.191406 561.023438 422.519531 546.679688 440.195312 546.679688 C 457.871094 546.679688 472.199219 561.023438 472.199219 578.707031 C 472.199219 596.402344 457.871094 610.746094 440.195312 610.746094 C 422.519531 610.746094 408.191406 596.402344 408.191406 578.707031 "/><path style=" stroke:none;fill-rule:nonzero;fill:#094f94;fill-opacity:1;" d="M 418.042969 578.707031 C 418.042969 566.464844 427.960938 556.542969 440.195312 556.542969 C 452.425781 556.542969 462.347656 566.464844 462.347656 578.707031 C 462.347656 590.957031 452.425781 600.878906 440.195312 600.878906 C 427.960938 600.878906 418.042969 590.957031 418.042969 578.707031 "/><g clip-rule="nonzero" clip-path="url(#4c3bbf2433)"><path style=" stroke:none;fill-rule:nonzero;fill:#e0ecf8;fill-opacity:1;" d="M 616.867188 490.664062 L 617.882812 546.609375 C 618.164062 562.117188 626.1875 576.449219 639.25 584.792969 L 750.253906 655.675781 C 764.085938 664.507812 781.96875 652.949219 779.449219 636.722656 C 772.734375 593.4375 746.171875 522.523438 649.214844 471.003906 C 634.398438 463.132812 616.558594 473.875 616.867188 490.664062 "/></g><g clip-rule="nonzero" clip-path="url(#4d18d7e532)"><path style=" stroke:none;fill-rule:nonzero;fill:#c7dae9;fill-opacity:1;" d="M 759.714844 636.738281 L 648.710938 565.851562 C 635.648438 557.511719 627.625 543.175781 627.34375 527.667969 L 626.339844 472.300781 C 620.636719 476.210938 616.722656 482.746094 616.867188 490.664062 L 617.882812 546.609375 C 618.164062 562.117188 626.1875 576.449219 639.25 584.792969 L 750.253906 655.675781 C 763.949219 664.425781 781.585938 653.167969 779.488281 637.191406 C 773.71875 640.492188 766.269531 640.917969 759.714844 636.738281 "/></g><path style=" stroke:none;fill-rule:nonzero;fill:#c7dae9;fill-opacity:1;" d="M 228.996094 230.566406 L 216.726562 80.246094 L 220.808594 79.585938 L 253.542969 230.566406 L 228.996094 230.566406 "/><g clip-rule="nonzero" clip-path="url(#b4f0146684)"><path style=" stroke:none;fill-rule:nonzero;fill:#c7dae9;fill-opacity:1;" d="M 209.222656 80.574219 C 209.222656 75.109375 213.648438 70.683594 219.109375 70.683594 C 224.570312 70.683594 228.996094 75.109375 228.996094 80.574219 C 228.996094 86.042969 224.570312 90.46875 219.109375 90.46875 C 213.648438 90.46875 209.222656 86.042969 209.222656 80.574219 "/></g><path style=" stroke:none;fill-rule:nonzero;fill:#c7dae9;fill-opacity:1;" d="M 651.394531 230.566406 L 663.664062 80.246094 L 659.582031 79.585938 L 626.847656 230.566406 L 651.394531 230.566406 "/><g clip-rule="nonzero" clip-path="url(#16d4cbd8ac)"><path style=" stroke:none;fill-rule:nonzero;fill:#c7dae9;fill-opacity:1;" d="M 671.164062 80.574219 C 671.164062 75.109375 666.742188 70.683594 661.28125 70.683594 C 655.820312 70.683594 651.394531 75.109375 651.394531 80.574219 C 651.394531 86.042969 655.820312 90.46875 661.28125 90.46875 C 666.742188 90.46875 671.164062 86.042969 671.164062 80.574219 "/></g><path style=" stroke:none;fill-rule:nonzero;fill:#094f94;fill-opacity:1;" d="M 655.105469 221.996094 L 225.289062 221.996094 C 197.035156 221.996094 174.132812 244.917969 174.132812 273.195312 L 174.132812 310.53125 C 174.132812 338.808594 197.035156 361.730469 225.289062 361.730469 L 655.105469 361.730469 C 683.359375 361.730469 706.261719 338.808594 706.261719 310.53125 L 706.261719 273.195312 C 706.261719 244.917969 683.359375 221.996094 655.105469 221.996094 "/><path style=" stroke:none;fill-rule:nonzero;fill:#e0ecf8;fill-opacity:1;" d="M 515.582031 121.148438 L 364.808594 121.148438 C 286.050781 121.148438 222.203125 185.046875 222.203125 263.871094 L 222.203125 319.855469 C 222.203125 398.679688 286.050781 462.582031 364.808594 462.582031 L 515.582031 462.582031 C 594.339844 462.582031 658.1875 398.679688 658.1875 319.855469 L 658.1875 263.871094 C 658.1875 185.046875 594.339844 121.148438 515.582031 121.148438 "/><path style=" stroke:none;fill-rule:nonzero;fill:#c7dae9;fill-opacity:1;" d="M 604.828125 249.039062 L 603.585938 242.941406 C 599.570312 223.265625 587.359375 206.125 570.082031 195.917969 C 552.804688 185.714844 531.910156 183.289062 512.765625 189.28125 L 510.59375 189.957031 C 463.875 204.570312 414.515625 204.460938 367.867188 189.652344 C 348.683594 183.558594 327.738281 185.914062 310.382812 196.117188 C 293.035156 206.320312 280.777344 223.488281 276.75 243.214844 L 275.5625 249.035156 C 267.554688 288.320312 277.492188 328.660156 302.828125 359.714844 C 328.160156 390.773438 365.671875 408.578125 405.730469 408.578125 L 474.664062 408.578125 C 514.722656 408.578125 552.230469 390.773438 577.5625 359.714844 C 602.898438 328.660156 612.839844 288.320312 604.828125 249.039062 "/><path style=" stroke:none;fill-rule:nonzero;fill:#2e3033;fill-opacity:1;" d="M 591.84375 251.6875 L 590.605469 245.59375 C 583.753906 212.011719 549.402344 191.710938 516.710938 201.9375 L 514.542969 202.617188 C 465.46875 217.960938 412.867188 217.847656 363.859375 202.289062 C 331.121094 191.890625 296.597656 212.1875 289.730469 245.871094 L 288.546875 251.6875 C 273.414062 325.886719 330.066406 395.324219 405.730469 395.324219 L 474.660156 395.324219 C 550.328125 395.324219 606.976562 325.886719 591.84375 251.6875 "/><path style=" stroke:none;fill-rule:nonzero;fill:#ffffff;fill-opacity:1;" d="M 260.082031 199.28125 C 260.082031 199.28125 302.984375 132.019531 333.261719 142.121094 C 363.542969 152.222656 294.882812 176.566406 260.082031 199.28125 "/><path style=" stroke:none;fill-rule:nonzero;fill:#ffffff;fill-opacity:1;" d="M 372.890625 141.089844 C 372.890625 145.898438 368.992188 149.800781 364.179688 149.800781 C 359.371094 149.800781 355.472656 145.898438 355.472656 141.089844 C 355.472656 136.273438 359.371094 132.371094 364.179688 132.371094 C 368.992188 132.371094 372.890625 136.273438 372.890625 141.089844 "/><path style=" stroke:none;fill-rule:nonzero;fill:#ffffff;fill-opacity:1;" d="M 758.128906 601.703125 C 758.128906 601.703125 721.242188 517.878906 708.503906 530.535156 C 695.769531 543.1875 758.128906 601.703125 758.128906 601.703125 "/><path style=" stroke:none;fill-rule:nonzero;fill:#ffde1a;fill-opacity:1;" d="M 440.195312 352.59375 C 425.488281 352.59375 410.785156 348.59375 396.179688 340.582031 C 391.371094 337.945312 389.609375 331.914062 392.246094 327.101562 C 394.875 322.289062 400.902344 320.523438 405.71875 323.160156 C 428.914062 335.882812 451.472656 335.882812 474.675781 323.160156 C 479.476562 320.523438 485.519531 322.285156 488.144531 327.101562 C 490.777344 331.914062 489.019531 337.945312 484.210938 340.582031 C 469.605469 348.59375 454.902344 352.59375 440.195312 352.59375 "/><path style=" stroke:none;fill-rule:nonzero;fill:#e0ecf8;fill-opacity:1;" d="M 255.953125 548.410156 L 259.964844 492.597656 C 261.078125 477.128906 254.378906 462.128906 242.113281 452.648438 L 137.925781 372.0625 C 124.941406 362.019531 106.097656 371.925781 107.144531 388.3125 C 109.949219 432.027344 130.03125 505.046875 221.96875 565.078125 C 236.019531 574.253906 254.746094 565.160156 255.953125 548.410156 "/><path style=" stroke:none;fill-rule:nonzero;fill:#c7dae9;fill-opacity:1;" d="M 259.964844 492.597656 C 260.667969 482.800781 258.222656 473.207031 253.230469 465.066406 L 250.324219 505.425781 C 249.125 522.175781 230.394531 531.273438 216.34375 522.09375 C 147.179688 476.933594 118.6875 424.429688 107.625 382.578125 C 107.195312 384.375 107.015625 386.292969 107.144531 388.3125 C 109.949219 432.027344 130.03125 505.046875 221.96875 565.078125 C 236.019531 574.253906 254.746094 565.160156 255.953125 548.410156 L 259.964844 492.597656 "/><path style=" stroke:none;fill-rule:nonzero;fill:#ffde1a;fill-opacity:1;" d="M 363.230469 275.882812 C 363.230469 266.253906 371.027344 258.449219 380.644531 258.449219 C 390.269531 258.449219 398.066406 266.253906 398.066406 275.882812 C 398.066406 285.511719 390.269531 293.316406 380.644531 293.316406 C 371.027344 293.316406 363.230469 285.511719 363.230469 275.882812 "/><path style=" stroke:none;fill-rule:nonzero;fill:#ffde1a;fill-opacity:1;" d="M 480.421875 275.882812 C 480.421875 266.253906 488.21875 258.449219 497.839844 258.449219 C 507.457031 258.449219 515.257812 266.253906 515.257812 275.882812 C 515.257812 285.511719 507.457031 293.316406 497.839844 293.316406 C 488.21875 293.316406 480.421875 285.511719 480.421875 275.882812 "/><path style=" stroke:none;fill-rule:nonzero;fill:#0083db;fill-opacity:1;" d="M 194.058594 430.011719 L 153.132812 274.21875 C 151.023438 266.183594 142.804688 261.382812 134.773438 263.496094 L 42.949219 287.660156 C 34.917969 289.769531 30.121094 298 32.230469 306.035156 L 73.160156 461.828125 C 75.273438 469.863281 83.488281 474.667969 91.523438 472.550781 L 183.347656 448.390625 C 191.375 446.273438 196.171875 438.046875 194.058594 430.011719 "/><path style=" stroke:none;fill-rule:nonzero;fill:#094f94;fill-opacity:1;" d="M 176.886719 422.125 L 142.054688 289.546875 C 140.542969 283.800781 134.664062 280.363281 128.921875 281.875 L 57.074219 300.78125 C 51.332031 302.292969 47.902344 308.179688 49.410156 313.925781 L 84.242188 446.503906 C 85.75 452.25 91.628906 455.683594 97.371094 454.171875 L 169.21875 435.265625 C 174.960938 433.753906 178.390625 427.871094 176.886719 422.125 "/><path style=" stroke:none;fill-rule:nonzero;fill:#e0ecf8;fill-opacity:1;" d="M 130.699219 376.9375 L 77.515625 390.933594 L 74.996094 381.34375 L 128.183594 367.347656 L 130.699219 376.9375 "/><path style=" stroke:none;fill-rule:nonzero;fill:#e0ecf8;fill-opacity:1;" d="M 112.386719 363.640625 L 73.066406 373.992188 L 70.542969 364.402344 L 109.867188 354.054688 L 112.386719 363.640625 "/><path style=" stroke:none;fill-rule:nonzero;fill:#e0ecf8;fill-opacity:1;" d="M 100.070312 348.765625 L 68.613281 357.046875 L 66.09375 347.457031 L 97.550781 339.179688 L 100.070312 348.765625 "/><path style=" stroke:none;fill-rule:nonzero;fill:#e0ecf8;fill-opacity:1;" d="M 138.960938 307.742188 L 102.503906 317.339844 L 99.988281 307.75 L 136.441406 298.152344 L 138.960938 307.742188 "/><path style=" stroke:none;fill-rule:nonzero;fill:#e0ecf8;fill-opacity:1;" d="M 162.992188 399.230469 L 126.539062 408.824219 L 124.019531 399.234375 L 160.476562 389.644531 L 162.992188 399.230469 "/><path style=" stroke:none;fill-rule:nonzero;fill:#e0ecf8;fill-opacity:1;" d="M 167.765625 417.390625 L 116.445312 430.898438 L 113.925781 421.304688 L 165.246094 407.800781 L 167.765625 417.390625 "/></g></svg>