<svg xmlns="http://www.w3.org/2000/svg" xmlns:xlink="http://www.w3.org/1999/xlink" width="1080" zoomAndPan="magnify" viewBox="0 0 810 809.999993" height="1080" preserveAspectRatio="xMidYMid meet" version="1.2"><defs><clipPath id="af048978fe"><path d="M 440 346 L 761.941406 346 L 761.941406 460 L 440 460 Z M 440 346 "/></clipPath><clipPath id="2e6d82ed21"><path d="M 44.191406 41 L 406 41 L 406 765 L 44.191406 765 Z M 44.191406 41 "/></clipPath></defs><g id="4a0088c288"><path style=" stroke:none;fill-rule:nonzero;fill:#00b7ef;fill-opacity:1;" d="M 600.46875 96.847656 C 600.46875 126.84375 575.800781 151.46875 545.394531 151.953125 L 524.710938 212.824219 C 522.214844 220.410156 515.113281 225.429688 507.015625 225.429688 L 440.554688 225.429688 L 440.554688 188.691406 L 493.554688 188.691406 L 510.003906 140.191406 C 496.800781 130.148438 488.328125 114.476562 488.328125 96.835938 C 488.328125 66.460938 513.503906 41.726562 544.402344 41.726562 C 575.304688 41.726562 600.480469 66.460938 600.480469 96.835938 Z M 600.46875 96.847656 "/><path style=" stroke:none;fill-rule:nonzero;fill:#00b7ef;fill-opacity:1;" d="M 600.46875 709.179688 C 600.46875 739.550781 575.292969 764.285156 544.390625 764.285156 C 513.488281 764.285156 488.3125 739.550781 488.3125 709.179688 C 488.3125 691.546875 496.785156 675.863281 509.992188 665.820312 L 493.542969 617.320312 L 440.539062 617.320312 L 440.539062 580.582031 L 507.003906 580.582031 C 515.101562 580.582031 522.203125 585.605469 524.699219 593.191406 L 545.382812 654.058594 C 575.789062 654.542969 600.453125 679.167969 600.453125 709.167969 Z M 600.46875 709.179688 "/><path style=" stroke:none;fill-rule:nonzero;fill:#00b7ef;fill-opacity:1;" d="M 706.386719 178.769531 C 706.386719 199.328125 689.5625 216.136719 669.011719 216.136719 C 667.507812 216.136719 666.019531 216.015625 664.652344 215.761719 L 609.207031 289.640625 C 605.71875 294.371094 600.105469 297.117188 594.257812 297.117188 L 540.058594 297.117188 L 555.003906 322.035156 L 581.792969 322.035156 C 592.128906 322.035156 600.480469 330.382812 600.480469 340.71875 C 600.480469 351.050781 592.128906 359.402344 581.792969 359.402344 L 544.414062 359.402344 C 537.804688 359.402344 531.707031 355.917969 528.339844 350.300781 L 496.449219 297.105469 L 440.578125 297.105469 L 440.578125 259.738281 L 584.914062 259.738281 L 634.757812 193.339844 C 632.761719 188.851562 631.644531 183.875 631.644531 178.769531 C 631.644531 158.210938 648.46875 141.402344 669.023438 141.402344 C 689.574219 141.402344 706.398438 158.222656 706.398438 178.769531 Z M 706.386719 178.769531 "/><path style=" stroke:none;fill-rule:nonzero;fill:#00b7ef;fill-opacity:1;" d="M 706.386719 627.253906 C 706.386719 647.816406 689.5625 664.625 669.011719 664.625 C 648.457031 664.625 631.632812 647.804688 631.632812 627.253906 C 631.632812 622.148438 632.761719 617.164062 634.746094 612.675781 L 584.902344 546.277344 L 440.566406 546.277344 L 440.566406 508.910156 L 496.4375 508.910156 L 528.328125 455.710938 C 531.695312 450.109375 537.792969 446.625 544.402344 446.625 L 581.777344 446.625 C 592.117188 446.625 600.46875 454.972656 600.46875 465.308594 C 600.46875 475.644531 592.117188 483.992188 581.777344 483.992188 L 554.992188 483.992188 L 540.046875 508.90625 L 594.246094 508.90625 C 600.105469 508.90625 605.707031 511.644531 609.195312 516.386719 L 664.640625 590.261719 C 666.007812 590.007812 667.507812 589.886719 669 589.886719 C 689.5625 589.886719 706.375 606.707031 706.375 627.253906 Z M 706.386719 627.253906 "/><g clip-rule="nonzero" clip-path="url(#af048978fe)"><path style=" stroke:none;fill-rule:nonzero;fill:#00b7ef;fill-opacity:1;" d="M 762.464844 403.011719 C 762.464844 433.90625 737.289062 459.078125 706.386719 459.078125 C 682.09375 459.078125 661.277344 443.503906 653.554688 421.707031 L 440.554688 421.707031 L 440.554688 384.339844 L 653.554688 384.339844 C 661.277344 362.535156 682.082031 346.972656 706.386719 346.972656 C 737.289062 346.972656 762.464844 372.144531 762.464844 403.035156 Z M 762.464844 403.011719 "/></g><g clip-rule="nonzero" clip-path="url(#2e6d82ed21)"><path style=" stroke:none;fill-rule:nonzero;fill:#0b395e;fill-opacity:1;" d="M 405.511719 589.234375 C 406.46875 561.101562 389.765625 533.703125 361.890625 533.703125 C 351.566406 533.703125 343.203125 525.339844 343.203125 515.03125 C 343.203125 504.710938 351.566406 496.335938 361.878906 496.335938 C 377.03125 496.335938 392.222656 500.777344 405.550781 510.058594 L 405.550781 122.71875 C 405.550781 77.992188 369.285156 41.738281 324.550781 41.738281 C 275.433594 41.738281 236.519531 85.519531 244.703125 135.789062 C 250.886719 174.207031 284.28125 203.6875 324.550781 203.6875 L 330.191406 203.6875 C 354.289062 203.6875 355.546875 240.667969 331.449219 241.054688 C 262.289062 242.179688 217.25 195.699219 208.054688 143.121094 C 164.734375 152.425781 135.117188 195.601562 146.226562 241.476562 C 154.882812 277.175781 187.066406 303.335938 224.851562 303.335938 C 250.5 303.335938 253.34375 340.707031 224.914062 340.707031 C 183.09375 340.707031 146.46875 318.949219 125.398438 286.3125 C 78.023438 303.941406 44.167969 349.476562 44.167969 403 C 44.167969 456.523438 78.023438 502.046875 125.398438 519.691406 C 146.46875 487.054688 183.09375 465.296875 224.914062 465.296875 C 253.34375 465.296875 250.5 502.664062 224.851562 502.664062 C 187.453125 502.664062 154.988281 528.4375 146.226562 564.511719 C 135.117188 610.230469 164.601562 653.550781 208.054688 662.878906 C 217.773438 607.335938 266.246094 564.949219 324.539062 564.949219 L 331.449219 564.949219 C 355.546875 565.347656 354.289062 602.316406 330.191406 602.316406 L 324.550781 602.316406 C 284.609375 602.316406 250.910156 631.40625 244.65625 670.566406 C 236.691406 720.652344 275.519531 764.261719 324.550781 764.261719 C 369.285156 764.261719 405.550781 728.007812 405.550781 683.28125 L 405.511719 589.210938 Z M 335.648438 458.421875 C 325.675781 461.097656 315.425781 455.203125 312.738281 445.246094 C 307.761719 428.898438 291.75 416.433594 272.515625 421.089844 C 237.320312 442.339844 193.394531 440.890625 158.742188 418.769531 C 150.039062 413.214844 147.496094 401.65625 153.042969 392.957031 C 158.597656 384.257812 170.144531 381.714844 178.847656 387.257812 C 207.339844 405.421875 245.332031 401.378906 267.238281 377.832031 C 286.363281 357.257812 290.175781 325.734375 276.742188 299.367188 C 272.058594 290.171875 275.710938 278.929688 284.910156 274.234375 C 294.109375 269.550781 305.367188 273.195312 310.050781 282.402344 C 327.503906 316.625 325.472656 356.738281 306.273438 387.679688 C 339.074219 400.882812 348.417969 433.992188 348.832031 435.515625 C 351.519531 445.476562 345.625 455.738281 335.648438 458.421875 Z M 335.648438 458.421875 "/></g></g></svg>